<?xml version="1.0" encoding="UTF-8"?>
<svg version="1.1" xmlns="http://www.w3.org/2000/svg" width="2000" height="1999">
<path d="M0 0 C1.08519299 0.0000919 2.17038597 0.00018379 3.28846359 0.00027847 C35.59820943 0.00381524 67.6445635 0.40606644 99.78234863 4.07427979 C102.4862579 4.38052228 105.19146175 4.67134631 107.89746094 4.95849609 C176.94411656 12.3362099 245.49337333 26.45950731 311.42138672 48.37744141 C314.56859637 49.41835922 317.72299725 50.43500483 320.87890625 51.44921875 C338.32983604 57.10148725 355.41754109 63.55438867 372.4375 70.375 C373.06372253 70.62570251 373.68994507 70.87640503 374.33514404 71.13470459 C392.2958459 78.33613576 409.95963116 86.07205896 427.4375 94.375 C428.61876465 94.93477539 429.8000293 95.49455078 431.01708984 96.07128906 C453.82184508 106.89381398 476.17445237 118.27855561 497.9140625 131.12890625 C502.4859761 133.8294996 507.1013366 136.43473147 511.75 139 C544.10320722 157.05072232 574.9919632 178.94511484 604.4375 201.375 C605.00952148 201.81054199 605.58154297 202.24608398 606.17089844 202.69482422 C609.94049795 205.57011112 613.6925127 208.46773686 617.4375 211.375 C618.00178711 211.81166992 618.56607422 212.24833984 619.14746094 212.69824219 C626.14397907 218.11830001 633.02645849 223.64117494 639.75390625 229.39257812 C643.10457476 232.25699108 646.50020943 235.05172393 649.9375 237.8125 C655.31604748 242.18600503 660.37202931 246.86318279 665.4375 251.58984375 C667.79757542 253.79027566 670.18909287 255.94581457 672.625 258.0625 C673.24503906 258.60132813 673.86507813 259.14015625 674.50390625 259.6953125 C675.14199219 260.24960937 675.78007813 260.80390625 676.4375 261.375 C683.02590554 267.11516285 689.24876494 273.14077841 695.39160156 279.34838867 C699.018156 282.99931244 702.7236273 286.47289934 706.64453125 289.80859375 C711.29194679 293.86875417 715.56607505 298.30244786 719.5625 303 C722.99033415 306.9965071 726.69805324 310.67406404 730.4375 314.375 C734.67541818 318.57381588 738.81877596 322.7755187 742.67578125 327.33203125 C744.52851246 329.48054217 746.44658609 331.56166766 748.37670898 333.640625 C753.21536962 338.85364214 757.80481206 344.19390205 762.265625 349.73828125 C764.37506349 352.29920028 766.56637648 354.74623455 768.8125 357.1875 C773.91964755 362.79377541 778.52665568 368.75503461 783.16796875 374.74560547 C784.92118821 376.99579521 786.70925078 379.21711538 788.5 381.4375 C797.87080863 393.14152616 806.7306243 405.17247495 815.4375 417.375 C815.9722998 418.12426758 816.50709961 418.87353516 817.05810547 419.64550781 C823.33661331 428.4565715 829.51820014 437.3173125 835.4375 446.375 C835.9236377 447.1165332 836.40977539 447.85806641 836.91064453 448.62207031 C851.59245649 471.03091946 865.54350206 493.8854348 878.4375 517.375 C878.9329834 518.27573242 879.4284668 519.17646484 879.93896484 520.10449219 C899.71954541 556.16905622 917.39261597 593.07943662 932.4375 631.375 C933.10362305 633.06230225 933.10362305 633.06230225 933.78320312 634.78369141 C941.51127669 654.45136063 948.27688401 674.38838978 954.8170166 694.47576904 C955.66844818 697.08190678 956.53379237 699.68337722 957.3984375 702.28515625 C978.62968519 766.7737817 991.10473408 834.40475349 997.75 901.875 C997.86317566 903.01003464 997.86317566 903.01003464 997.9786377 904.16799927 C998.54021054 909.89829425 999.0036556 915.6337427 999.4375 921.375 C999.52363556 922.47977692 999.60977112 923.58455383 999.69851685 924.72280884 C1001.50428043 948.50723793 1001.79988894 972.23481094 1001.75535583 996.08031464 C1001.74992368 999.104997 1001.74755081 1002.12967155 1001.7454834 1005.15435791 C1001.71559233 1033.20858503 1001.43503978 1061.13785433 998.66210938 1089.07897949 C998.43508208 1091.39971664 998.22324876 1093.72139702 998.015625 1096.04394531 C990.11522038 1183.79338995 969.39011045 1270.37189442 875.4375 1488.375 C874.86563965 1489.38981445 874.2937793 1490.40462891 873.70458984 1491.45019531 C852.11925996 1529.61152793 828.06542943 1566.52868926 801.4375 1601.375 C800.98890625 1601.96394043 800.5403125 1602.55288086 800.078125 1603.15966797 C794.6286582 1610.31008966 789.09210265 1617.38528283 783.4375 1624.375 C782.96441406 1624.96152344 782.49132813 1625.54804687 782.00390625 1626.15234375 C775.6886209 1633.97951786 769.3371304 1641.76659446 762.77612305 1649.38989258 C760.35011089 1652.20539026 760.35011089 1652.20539026 758.4375 1655.375 C757.7775 1655.375 757.1175 1655.375 756.4375 1655.375 C756.19 1655.931875 755.9425 1656.48875 755.6875 1657.0625 C754.20825182 1659.79910913 752.50282561 1662.05150869 750.4375 1664.375 C749.7775 1664.375 749.1175 1664.375 748.4375 1664.375 C748.18009033 1664.95386963 747.92268066 1665.53273926 747.6574707 1666.12915039 C746.32863115 1668.57541715 744.83604117 1670.29455619 742.91796875 1672.30859375 C742.22509766 1673.04013672 741.53222656 1673.77167969 740.81835938 1674.52539062 C740.09455078 1675.28013672 739.37074219 1676.03488281 738.625 1676.8125 C737.91279297 1677.56337891 737.20058594 1678.31425781 736.46679688 1679.08789062 C733.59543456 1682.10800067 730.70888508 1685.10440613 727.7578125 1688.046875 C725.62431695 1690.18755404 723.57452514 1692.38644356 721.54394531 1694.62451172 C716.23285441 1700.47475329 710.76668882 1706.1551338 705.1875 1711.75 C704.53869873 1712.40331299 703.88989746 1713.05662598 703.22143555 1713.72973633 C699.3737361 1717.56572135 695.40167701 1721.19030828 691.29003906 1724.74072266 C688.71582686 1727.01164734 686.33604553 1729.41865819 683.9375 1731.875 C680.23340415 1735.62955689 676.45151876 1739.22552033 672.44140625 1742.65234375 C670.19487755 1744.58357018 668.00473628 1746.56988198 665.8125 1748.5625 C654.97164732 1758.32918283 643.7719456 1767.64467925 632.40478516 1776.79003906 C630.53010572 1778.30039137 628.66099704 1779.81737201 626.79296875 1781.3359375 C605.53027736 1798.56027629 583.27986038 1814.57782168 560.6171875 1829.90087891 C558.65865589 1831.22543243 556.70407785 1832.55561035 554.75 1833.88671875 C534.89778026 1847.33910058 514.29183203 1859.55437423 493.4375 1871.375 C492.63715332 1871.83181152 491.83680664 1872.28862305 491.01220703 1872.75927734 C432.93679863 1905.88434351 371.30813773 1932.381838 307.64019775 1952.67181396 C305.4519897 1953.37037433 303.26564997 1954.0745352 301.07958984 1954.77978516 C254.92671276 1969.62785578 207.71566149 1980.04702459 159.9296875 1987.9921875 C159.1738588 1988.11788116 158.41803009 1988.24357483 157.63929749 1988.37307739 C154.27285947 1988.92749376 150.91407323 1989.44521339 147.53173828 1989.89892578 C144.53584574 1990.19832801 144.53584574 1990.19832801 142.4375 1991.375 C140.58749177 1991.58280124 138.7318992 1991.74219495 136.875 1991.875 C133.32827605 1992.13327899 129.79626093 1992.43530534 126.26318359 1992.83618164 C119.24941598 1993.62305899 112.22849217 1994.33752084 105.20678711 1995.04956055 C103.51944307 1995.22140636 101.83225993 1995.39484132 100.14526367 1995.57006836 C94.8722301 1996.11735363 89.59707188 1996.63038551 84.31750488 1997.11071777 C82.40591071 1997.28613427 80.49483655 1997.46731834 78.58435059 1997.65441895 C55.64489591 1999.85934677 32.6618615 1999.74989594 9.63818359 1999.74560547 C5.12695013 1999.74544442 0.61612928 1999.75912112 -3.89501953 1999.78662109 C-89.74422711 2000.30132762 -175.52698011 1988.75343481 -391.03344727 1920.52368164 C-393.29335388 1919.49724467 -395.55764676 1918.58175138 -397.875 1917.6953125 C-405.2059479 1914.78185191 -412.30940088 1911.37119962 -419.4375 1908 C-420.17971802 1907.64973755 -420.92193604 1907.2994751 -421.68664551 1906.93859863 C-452.40644341 1892.43033927 -482.25724101 1876.73977945 -511.39892578 1859.26757812 C-514.29003252 1857.53800108 -517.18801746 1855.82088519 -520.08984375 1854.109375 C-530.3310325 1848.05270552 -540.32003618 1841.70804462 -550.15527344 1835.01269531 C-552.747469 1833.24916105 -555.34621866 1831.49553713 -557.9453125 1829.7421875 C-575.56916682 1817.82410798 -592.75335408 1805.41585923 -609.5625 1792.375 C-610.46645508 1791.67576416 -610.46645508 1791.67576416 -611.38867188 1790.96240234 C-620.62407805 1783.80933831 -629.64575739 1776.40832329 -638.64257812 1768.95849609 C-640.33321343 1767.56410894 -642.03052384 1766.17896098 -643.734375 1764.80078125 C-649.04717149 1760.50101799 -654.19717455 1756.07546443 -659.25 1751.47265625 C-661.22634372 1749.67992554 -663.2270673 1747.92704773 -665.25 1746.1875 C-674.02187013 1738.54114477 -682.52846044 1730.53436204 -690.67675781 1722.22827148 C-692.46227966 1720.47349464 -694.3015849 1718.84528038 -696.20703125 1717.22265625 C-700.94782348 1713.10006202 -705.382692 1708.70195704 -709.8125 1704.25 C-710.60140625 1703.46496094 -711.3903125 1702.67992187 -712.203125 1701.87109375 C-715.88465011 1698.18334984 -719.39822305 1694.52665575 -722.5625 1690.375 C-724.20552953 1688.68502677 -725.87721312 1687.02283606 -727.5625 1685.375 C-742.79669696 1670.4276994 -742.79669696 1670.4276994 -745.5625 1664.375 C-746.2225 1664.375 -746.8825 1664.375 -747.5625 1664.375 C-748.97688406 1662.80213316 -750.31854401 1661.16360004 -751.625 1659.5 C-754.67275865 1655.68664438 -757.76750341 1651.97691191 -761.0625 1648.375 C-765.76658144 1643.19969797 -770.18242659 1637.82560253 -774.5625 1632.375 C-775.0255957 1631.80088379 -775.48869141 1631.22676758 -775.96582031 1630.63525391 C-797.54704354 1603.87596161 -817.68475298 1576.10626493 -836.5625 1547.375 C-837.01157715 1546.694375 -837.4606543 1546.01375 -837.92333984 1545.3125 C-850.06290526 1526.8883511 -861.38817448 1507.97213026 -872.21923828 1488.75292969 C-873.48029819 1486.52051902 -874.75175405 1484.29444415 -876.02734375 1482.0703125 C-880.34111003 1474.52440008 -884.40185344 1466.89661456 -888.23046875 1459.09375 C-889.98908146 1455.5124614 -891.79389194 1451.95703857 -893.61328125 1448.40625 C-903.02025522 1429.96368369 -911.51378175 1411.1813391 -919.76751709 1392.19873047 C-920.80150661 1389.82670692 -921.84848766 1387.46047783 -922.89453125 1385.09375 C-937.46458071 1351.74641529 -950.05967368 1316.3551109 -959.51171875 1281.21875 C-960.12092907 1278.99026319 -960.76735588 1276.77000358 -961.50830078 1274.58178711 C-962.63499346 1271.15448087 -963.57197271 1267.71412678 -964.48046875 1264.22265625 C-964.65835434 1263.53913589 -964.83623993 1262.85561554 -965.01951599 1262.15138245 C-965.59981032 1259.91429959 -966.17570187 1257.67612943 -966.75 1255.4375 C-967.04871002 1254.27344635 -967.04871002 1254.27344635 -967.35345459 1253.08587646 C-980.35639656 1202.27579918 -989.89424051 1150.67305206 -994.875 1098.4375 C-994.9503598 1097.65557281 -995.0257196 1096.87364563 -995.10336304 1096.06802368 C-995.66125858 1090.1753547 -996.12366596 1084.27760476 -996.5625 1078.375 C-996.64863556 1077.26206573 -996.73477112 1076.14913147 -996.82351685 1075.00247192 C-998.62332192 1051.22536735 -998.92487498 1027.50771177 -998.88035583 1003.66968536 C-998.87492368 1000.645003 -998.87255081 997.62032845 -998.8704834 994.59564209 C-998.84059233 966.54141497 -998.56003978 938.61214567 -995.78710938 910.67102051 C-995.56008208 908.35028336 -995.34824876 906.02860298 -995.140625 903.70605469 C-989.39146297 839.85036639 -976.63432347 776.83901357 -958.5625 715.375 C-958.07015869 713.69736572 -958.07015869 713.69736572 -957.56787109 711.98583984 C-944.0497334 666.26010466 -927.01066887 621.45160655 -906.5625 578.375 C-905.83184326 576.83126709 -905.83184326 576.83126709 -905.08642578 575.25634766 C-901.61855203 567.94295505 -898.10749176 560.65130566 -894.5625 553.375 C-893.91498779 552.0449292 -893.91498779 552.0449292 -893.25439453 550.68798828 C-884.19064073 532.13932227 -874.24875439 514.11919954 -863.8125 496.3125 C-863.2843721 495.41109787 -863.2843721 495.41109787 -862.74557495 494.4914856 C-855.80937804 482.67071146 -848.68699855 470.97306961 -841.1875 459.5 C-840.63006104 458.64559326 -840.07262207 457.79118652 -839.49829102 456.91088867 C-837.85586722 454.39705147 -836.21000551 451.88550903 -834.5625 449.375 C-834.11084473 448.68583496 -833.65918945 447.99666992 -833.19384766 447.28662109 C-826.54137531 437.15549744 -819.60628895 427.23717306 -812.5625 417.375 C-811.7590918 416.24626465 -811.7590918 416.24626465 -810.93945312 415.09472656 C-800.64706506 400.64744463 -789.7632975 386.79046219 -778.55078125 373.05078125 C-776.19368415 370.15928157 -773.87096877 367.24304036 -771.5625 364.3125 C-767.18588312 358.82333976 -762.56044107 353.55387655 -757.9453125 348.265625 C-755.71414083 345.70728324 -753.50079239 343.13537901 -751.3046875 340.546875 C-746.73123095 335.15675508 -742.20329682 329.82996479 -737.109375 324.91796875 C-735.47349607 323.28622082 -733.9931784 321.57548538 -732.5 319.8125 C-729.04858094 315.79758395 -725.32310883 312.09632842 -721.5625 308.375 C-717.24387948 304.10144138 -713.06806746 299.79821088 -709.12890625 295.16796875 C-705.08832439 290.54296358 -700.68029183 286.2836567 -696 282.3125 C-691.80291773 278.71381362 -687.950119 274.80020122 -684.0625 270.875 C-679.63858153 266.41272074 -675.22685961 262.01790052 -670.42578125 257.95703125 C-668.21739073 256.08198269 -666.08064878 254.13676133 -663.9375 252.1875 C-647.72297818 237.57715462 -630.80532626 223.74940876 -613.5625 210.375 C-612.54285156 209.57964844 -611.52320313 208.78429687 -610.47265625 207.96484375 C-565.28408002 172.91947883 -517.01491132 142.25376465 -466.5625 115.375 C-465.5626709 114.84084473 -464.5628418 114.30668945 -463.53271484 113.75634766 C-424.75164688 93.11685021 -384.63612337 75.87490621 -343.5625 60.375 C-341.99967285 59.78041992 -341.99967285 59.78041992 -340.40527344 59.17382812 C-296.11967142 42.40140124 -249.87501687 30.05701439 -203.5625 20.375 C-202.79824707 20.21493469 -202.03399414 20.05486938 -201.24658203 19.88995361 C-166.45129452 12.63780608 -131.18417941 7.49729653 -95.8125 4.0625 C-95.03918335 3.9871402 -94.2658667 3.9117804 -93.46911621 3.83413696 C-88.73772022 3.38059388 -84.00380683 2.97490778 -79.26583862 2.59643555 C-77.39877037 2.44350048 -75.53235067 2.28250964 -73.66653442 2.11499023 C-49.13704409 -0.07467011 -24.60778327 -0.02247191 0 0 Z " fill="#0F4C97" transform="translate(998.5625,-0.375)"/>
<path d="M0 0 C91.41 0 182.82 0 277 0 C277 10.56 277 21.12 277 32 C272.565625 32.556875 268.13125 33.11375 263.5625 33.6875 C253.39048223 35.01401814 243.31123826 36.5440869 233.25 38.5625 C232.25943604 38.75996826 231.26887207 38.95743652 230.24829102 39.16088867 C217.61740376 41.78202709 204.66049527 44.73456579 197 56 C187.01418809 71.56611856 188.84898747 94.57407083 188.86628723 112.36924744 C188.86441593 114.20699741 188.86211397 116.04474699 188.85942191 117.88249594 C188.85333627 122.90311561 188.85343369 127.92371855 188.85461628 132.94434106 C188.85482113 138.37146087 188.84929335 143.79857542 188.84455872 149.22569275 C188.83626789 159.85064722 188.83350453 170.47559613 188.83294634 181.10055356 C188.83247015 189.74796569 188.83041028 198.395376 188.82724571 207.04278755 C188.81844113 231.60522538 188.81381959 256.16765889 188.81457619 280.7300983 C188.81459613 281.39132893 188.81461608 282.05255956 188.81463663 282.73382749 C188.81467706 284.07099989 188.81471886 285.40817228 188.81476202 286.74534468 C188.81541287 308.84290477 188.8061154 330.94044557 188.7915589 353.03800052 C188.77715137 375.08510013 188.77029121 397.13219117 188.77115268 419.1792956 C188.77148328 431.53876239 188.76879684 443.89821074 188.75797462 456.25767326 C188.74881154 466.78935592 188.74674134 477.32101177 188.75348405 487.85269671 C188.75672106 493.21335273 188.75690987 498.5739575 188.7481308 503.93460846 C188.69863981 536.22103495 190.11524154 567.90981135 194 600 C194.11456543 600.95197266 194.22913086 601.90394531 194.34716797 602.88476562 C195.95481817 615.90463227 198.46486293 628.63694058 201.41210938 641.41650391 C201.91857104 643.64215895 202.39727259 645.87029948 202.859375 648.10546875 C204.82961238 657.22246344 207.43749933 666.14132714 210.1625061 675.05740356 C210.58766185 676.4506824 211.00918005 677.84507774 211.42660522 679.24069214 C214.38462153 689.08608341 218.20106641 697.90548698 223 707 C223.70295356 708.44229002 224.39870405 709.88815227 225.08203125 711.33984375 C238.3010749 738.82232502 258.18530107 761.78172083 284 778 C284.57911133 778.36657715 285.15822266 778.7331543 285.75488281 779.11083984 C292.6043703 783.39424262 299.56780917 786.8417387 307.0625 789.8125 C308.10531128 790.229552 308.10531128 790.229552 309.16918945 790.6550293 C313.6424413 792.35049859 318.12803228 793.54090009 322.79467773 794.59643555 C323.95869614 794.86095016 325.12271454 795.12546478 326.32200623 795.397995 C327.20574417 795.59665665 328.08948212 795.7953183 329 796 C328.91810012 758.34292037 328.82587647 720.68587936 328.71994839 683.02885938 C328.70743061 678.57571766 328.69499767 674.1225757 328.68261719 669.66943359 C328.6789182 668.33971117 328.6789182 668.33971117 328.67514448 666.98312567 C328.63549993 652.65900685 328.60271599 638.33488021 328.57250018 624.01073875 C328.54130567 609.29560701 328.50266254 594.58050821 328.45720994 579.86541355 C328.42943054 570.79696306 328.4073522 561.72853644 328.39273749 552.66005503 C328.3821357 546.42815184 328.36425121 540.19629508 328.34083296 533.96442701 C328.32756284 530.37746219 328.31731793 526.79056198 328.31578636 523.20357132 C328.30748026 508.6684179 328.08632861 494.39975899 326 480 C325.85498865 478.90690584 325.7099773 477.81381168 325.56057167 476.68759346 C324.16836277 466.65817599 320.10932998 458.6535912 312 452.4765625 C306.85875497 448.81699573 302.02085634 446.73807815 296 445 C295.16082031 444.69449219 294.32164062 444.38898438 293.45703125 444.07421875 C282.8220026 440.35698201 271.73068311 439.09670036 260.62109375 437.51757812 C255.69606015 436.81362241 250.77590689 436.07805925 245.85546875 435.34277344 C240.57120415 434.55583806 235.28545367 433.77890896 230 433 C230 421.12 230 409.24 230 397 C350.45 397 470.9 397 595 397 C594.9175 356.595625 594.835 316.19125 594.75 274.5625 C594.73420898 261.86338135 594.71841797 249.1642627 594.70214844 236.08032227 C594.66887789 224.57279893 594.66887789 224.57279893 594.63043213 213.06529236 C594.61361048 207.98921247 594.60756011 202.91325003 594.60845947 197.83714294 C594.65349844 158.00220435 594.65349844 158.00220435 590.52178192 118.44230461 C589.55184025 112.04339624 588.82665242 105.61373464 588.0625 99.1875 C585.90616472 81.28538208 579.01053028 66.01269256 565.00390625 54.3359375 C545.98752894 39.90062855 523.08168605 35.55102862 500 32 C500 21.44 500 10.88 500 0 C579.86 0 659.72 0 742 0 C742 10.23 742 20.46 742 31 C728.625 33.8125 728.625 33.8125 724.47119141 34.67895508 C701.24090544 39.61215086 679.21358714 47.88689588 664.97265625 67.9296875 C657.72830296 79.20505717 654.88990863 91.33693902 654.30859375 104.63671875 C654.0591471 107.35537145 653.65082548 109.8044813 653.08058643 112.46125221 C649.20896876 131.5496071 648.55316654 150.85692379 648.56762695 170.26806641 C648.5585799 172.7743375 648.54824565 175.28060421 648.53674316 177.78686523 C648.51509074 183.12084587 648.50212269 188.45473157 648.49761391 193.78874588 C648.49107957 201.50025248 648.46801752 209.21164474 648.44127061 216.92310457 C648.39828005 229.44269798 648.36815633 241.9622865 648.34643555 254.48193359 C648.32534178 266.62388507 648.29799459 278.7657967 648.26245117 290.90771484 C648.26025235 291.65958091 648.25805352 292.41144698 648.25578807 293.18609686 C648.24471633 296.95901477 648.23352391 300.7319323 648.22227156 304.50484967 C648.12948034 335.66986652 648.05792106 366.83489787 648 398 C648.8643784 398.05626966 649.72875681 398.11253931 650.6193285 398.17051411 C653.86346896 398.38234668 657.10752728 398.595388 660.35153675 398.8092165 C661.74861175 398.90106283 663.1457174 398.99244422 664.54285526 399.0833292 C674.12719129 399.7071996 683.66493419 400.40250864 693.1875 401.6875 C694.44191895 401.85483643 695.69633789 402.02217285 696.98876953 402.19458008 C767.31071129 411.88847737 836.24714754 436.08569912 892 481 C893.20462891 481.91845703 893.20462891 481.91845703 894.43359375 482.85546875 C912.48251371 496.75521171 930.19115892 513.90150148 944 532 C945.04744972 533.34301552 946.09569135 534.68541362 947.14453125 536.02734375 C953.44810986 544.13337174 959.50972285 552.31420999 965 561 C965.38800781 561.60231445 965.77601563 562.20462891 966.17578125 562.82519531 C996.27341576 609.67221002 1015.16447088 662.5809281 1025.44775391 717.09619141 C1025.90318667 719.49093821 1026.38280858 721.87685903 1026.88671875 724.26171875 C1034.56678775 761.84935801 1036.53814879 800.6971036 1036.3225708 838.95397949 C1036.30908878 842.19505768 1036.31442547 845.43599977 1036.31943512 848.67709351 C1036.38542803 905.29438522 1030.41374856 964.06567078 1012.02246094 1017.9465332 C1010.97662419 1021.06980927 1010.01280281 1024.20972099 1009.0625 1027.36328125 C1006.91976645 1034.38261688 1004.48591861 1041.28342603 1002 1048.1875 C1001.57460937 1049.38052734 1001.14921875 1050.57355469 1000.7109375 1051.80273438 C997.16113818 1061.70623891 993.33646771 1071.41607475 989 1081 C988.59410645 1081.9089502 988.18821289 1082.81790039 987.77001953 1083.75439453 C966.63467376 1130.97297849 938.42779524 1179.20601993 900.68408203 1215.31323242 C898.96110128 1217.03896075 897.39353313 1218.83976232 895.81640625 1220.69921875 C892.03276747 1225.04868646 887.96526587 1229.01001952 883.75 1232.9375 C883.00274658 1233.63697754 882.25549316 1234.33645508 881.4855957 1235.05712891 C876.65463119 1239.54671012 871.74542447 1243.84550903 866.578125 1247.9453125 C863.8087832 1250.15239399 861.12873133 1252.4484825 858.4375 1254.75 C839.8053973 1270.27675225 819.14518546 1283.20882706 798 1295 C797.24525391 1295.4213623 796.49050781 1295.84272461 795.71289062 1296.27685547 C777.25095838 1306.49314944 757.86735129 1314.92251862 738 1322 C736.78054688 1322.46535156 735.56109375 1322.93070313 734.3046875 1323.41015625 C721.32170679 1328.30029753 707.88182775 1331.66960426 694.45800781 1335.11108398 C692.31879194 1335.66099114 690.18210751 1336.220988 688.04980469 1336.79711914 C679.87452339 1338.95921773 671.61836453 1340.35318121 663.27539062 1341.67993164 C660.89851789 1342.05875178 658.5234681 1342.44770703 656.1484375 1342.83789062 C634.37227403 1346.3727772 612.70256894 1348.1669477 590.64329529 1348.12025452 C589.07357343 1348.12069199 587.50385165 1348.12157012 585.93413025 1348.12284368 C581.67413629 1348.12505411 577.41416801 1348.12111536 573.15417731 1348.11606562 C568.54025444 1348.11171106 563.9263328 1348.11321107 559.31240845 1348.1139679 C551.33617757 1348.11448998 543.35995493 1348.11137627 535.38372612 1348.10573006 C523.85171074 1348.09757213 512.3196993 1348.09499545 500.78768135 1348.09374207 C482.07370263 1348.09155827 463.35972829 1348.08491646 444.64575195 1348.07543945 C426.47648134 1348.06624791 408.30721192 1348.05917561 390.13793945 1348.05493164 C388.4554929 1348.05453756 388.4554929 1348.05453756 386.73905753 1348.05413551 C381.11166346 1348.05283039 375.48426938 1348.0515667 369.8568753 1348.05032361 C323.23791368 1348.03997194 276.61895741 1348.02209503 230 1348 C230 1336.12 230 1324.24 230 1312 C232.76503906 1311.62488281 235.53007813 1311.24976563 238.37890625 1310.86328125 C282.56681884 1307.42450634 282.56681884 1307.42450634 319 1286 C331.93727876 1264.25436124 328.30872898 1234.89174369 328.31667423 1210.55933332 C328.32041282 1205.80164802 328.33558959 1201.04399633 328.34928894 1196.28633118 C328.3714274 1188.06846606 328.38652077 1179.85061312 328.39665604 1171.63272476 C328.41131988 1159.75143822 328.43687762 1147.87019415 328.46498732 1135.98893271 C328.51031631 1116.7065003 328.54698814 1097.42406173 328.578125 1078.14160156 C328.60836773 1059.42446818 328.64274404 1040.70734982 328.68261719 1021.99023438 C328.68507874 1020.83407301 328.68754028 1019.67791165 328.69007643 1018.48671509 C328.70245214 1012.68586519 328.71490846 1006.88501546 328.72740483 1001.08416581 C328.83076432 953.05613155 328.92003582 905.02807853 329 857 C328.06904816 857.00392201 328.06904816 857.00392201 327.11928922 857.00792325 C326.30657345 857.00995688 325.49385769 857.01199051 324.65651417 857.01408577 C323.85025461 857.01670044 323.04399505 857.01931511 322.21330339 857.02200902 C319.93980498 856.99940142 317.7754415 856.82048319 315.53198242 856.45263672 C314.77570557 856.33163101 314.01942871 856.21062531 313.24023438 856.08595276 C312.05977539 855.88485146 312.05977539 855.88485146 310.85546875 855.6796875 C310.01153564 855.54058456 309.16760254 855.40148163 308.2980957 855.25816345 C305.59273451 854.807244 302.88998732 854.34281717 300.1875 853.875 C298.80747299 853.63890518 298.80747299 853.63890518 297.39956665 853.39804077 C284.2683147 851.13673139 271.57898758 848.467304 259 844 C256.83358741 843.31169977 254.66694817 842.62411222 252.5 841.9375 C246.54155479 839.90149013 240.76059037 837.53902798 235 835 C234.39091797 834.73767578 233.78183594 834.47535156 233.15429688 834.20507812 C209.70028389 824.03932475 189.42277316 809.56214726 171 792 C170.27167969 791.31292969 169.54335938 790.62585937 168.79296875 789.91796875 C163.37485254 784.67083846 158.65953613 778.92232637 154 773 C153.27941406 772.09636719 152.55882812 771.19273437 151.81640625 770.26171875 C145.12191344 761.63405689 139.47688981 752.43479053 134 743 C133.60280762 742.3184082 133.20561523 741.63681641 132.79638672 740.93457031 C120.66156565 719.83458694 112.13939188 696.04374086 106 672.5625 C105.83046814 671.91958008 105.66093628 671.27666016 105.48626709 670.61425781 C103.20328865 661.94689588 101.04955455 653.25479273 99.125 644.5 C98.93421875 643.63705322 98.7434375 642.77410645 98.546875 641.88500977 C97.00983844 634.63907971 95.97944652 627.33957657 95 620 C94.7527417 618.15776855 94.7527417 618.15776855 94.50048828 616.27832031 C94.06876488 612.98542903 93.65272316 609.69152883 93.25 606.39501953 C93.00940113 604.45096185 92.75497914 602.50863016 92.5 600.56640625 C88.68954251 570.1897644 88.69481847 539.43891182 88.69798481 508.87874854 C88.69631462 503.53929517 88.68312715 498.19986701 88.67144775 492.86042786 C88.6527653 483.64812381 88.64093152 474.43583266 88.63390923 465.22351265 C88.62363622 451.87321642 88.60150626 438.52295886 88.57652331 425.17268299 C88.53611623 403.45993814 88.50357993 381.74718953 88.47680664 360.03442383 C88.47441069 358.09359382 88.47441069 358.09359382 88.47196633 356.11355513 C88.46956798 354.17036646 88.46956798 354.17036646 88.46712118 352.18792146 C88.44441776 333.80960393 88.41977257 315.43129034 88.39282227 297.05297852 C88.39092612 295.75858121 88.38902997 294.4641839 88.38707637 293.13056243 C88.35520062 271.47936954 88.31944821 249.828184 88.28178078 228.17700046 C88.25888431 214.87289188 88.23988059 201.5687882 88.22611404 188.26466697 C88.21651999 179.14377825 88.20364903 170.02289797 88.18830519 160.90201712 C88.17962382 155.65880815 88.17247479 150.41560948 88.16966438 145.1723938 C88.15687823 118.28434858 88.15687823 118.28434858 87.598526 91.40342712 C87.56623978 90.26729652 87.53395356 89.13116592 87.50068897 87.96060711 C87.02524392 75.02642285 85.27289498 61.09782982 76.3125 51.12109375 C62.09879113 38.26768123 36.62215831 36.39327509 18.38671875 34.68261719 C12.15189797 34.09357162 6.24842284 33.04140381 0 32 C0 21.44 0 10.88 0 0 Z " fill="#FEFEFE" transform="translate(520,334)"/>
<path d="M0 0 C10.54438958 0.92755619 10.54438958 0.92755619 15.12109375 2.19921875 C15.98420166 2.43576172 16.84730957 2.67230469 17.73657227 2.91601562 C18.62787842 3.17060547 19.51918457 3.42519531 20.4375 3.6875 C21.86050415 4.08678711 21.86050415 4.08678711 23.31225586 4.49414062 C26.21231971 5.31575691 29.10691763 6.15415381 32 7 C32.8755957 7.25475098 33.75119141 7.50950195 34.65332031 7.77197266 C43.62415195 10.41014846 52.24076613 13.27117561 60.66015625 17.390625 C63.11445393 18.57328073 65.55153633 19.67717508 68.05859375 20.734375 C92.99422222 31.28931529 115.7855784 46.00887224 136 64 C137.4786361 65.292274 138.95773293 66.58402122 140.4375 67.875 C141.05367187 68.42027344 141.66984375 68.96554687 142.3046875 69.52734375 C143.8544377 70.87355533 145.45633509 72.15912385 147.0625 73.4375 C150.06215342 76.05421894 152.52725746 78.82557881 155.09765625 81.8515625 C157.05422466 84.06123935 159.1202427 86.08255895 161.25 88.125 C167.11832913 93.93354988 172.05241107 100.40917499 177 107 C177.62044189 107.82129395 177.62044189 107.82129395 178.25341797 108.65917969 C193.64365203 129.1670853 207.32675488 152.21381367 217 176 C217.48339844 177.16917969 217.96679688 178.33835937 218.46484375 179.54296875 C221.23216327 186.39153403 223.8098765 193.22641669 226.07421875 200.26171875 C226.92486448 202.77776372 227.8938441 205.18425891 228.9375 207.625 C231.64492193 214.24549269 233.36398079 221.16381302 235.19897461 228.06445312 C235.82433712 230.35624187 236.47026806 232.63832335 237.13110352 234.91992188 C240.32433032 246.02095 242.8771631 257.15952709 245.0625 268.5 C245.23397552 269.38295746 245.40545105 270.26591492 245.5821228 271.17562866 C248.82362474 287.9826573 251.10136528 304.76325486 252.78204727 321.79295921 C252.92306712 323.22095945 253.06495413 324.64887442 253.20788193 326.07668495 C255.53040308 349.3167421 256.50361079 372.35011862 256.38652039 395.70245361 C256.37476401 398.23840615 256.36827527 400.77432912 256.36291504 403.31030273 C256.29396247 431.28772503 255.50431566 459.12114138 253 487 C252.92267639 487.868526 252.84535278 488.737052 252.76568604 489.63189697 C250.40691909 515.8737132 247.55889463 542.22411987 242 568 C241.80019531 569.06992188 241.60039063 570.13984375 241.39453125 571.2421875 C236.13132733 599.3764048 229.4740473 629.60756249 217.87548828 655.91821289 C216.7495403 658.59555769 215.74367481 661.31218378 214.72265625 664.03125 C211.92950774 671.32951039 208.74900153 678.4263697 205.4375 685.5 C205.13453003 686.14897247 204.83156006 686.79794495 204.51940918 687.46658325 C184.58356414 730.02004164 155.34389646 771.16524808 117 799 C116.02861084 799.72195557 116.02861084 799.72195557 115.03759766 800.45849609 C104.51179134 808.27573181 93.65570013 815.0031932 82 821 C80.72092773 821.66298096 80.72092773 821.66298096 79.41601562 822.33935547 C57.72747789 833.46401148 35.14119587 841.7795918 11.22265625 846.54150391 C8.31112386 847.1421034 5.44172812 847.886448 2.5625 848.625 C-3.38649871 850.00266286 -9.38910404 850.82452719 -15.4375 851.625 C-16.3668335 851.7482666 -17.29616699 851.8715332 -18.25366211 851.99853516 C-31.80724743 853.70438287 -45.22954872 854.1523529 -58.8671875 854.1328125 C-60.5576275 854.13348865 -62.24806741 854.13446124 -63.93850708 854.13571167 C-67.45982806 854.13717485 -70.98112344 854.13507947 -74.50244141 854.13037109 C-78.9688007 854.12468353 -83.43509975 854.12795555 -87.90145683 854.13394356 C-91.38661129 854.13759429 -94.87175197 854.13638995 -98.35690689 854.13381577 C-100.00158826 854.13315845 -101.64627097 854.133932 -103.29095078 854.13629532 C-117.77203538 854.15254217 -132.29850259 854.08222628 -146.5 850.9375 C-147.95792969 850.61640259 -147.95792969 850.61640259 -149.4453125 850.28881836 C-167.29930725 846.05055559 -180.04083685 837.49405455 -190 822 C-207.85532373 788.0224878 -207.49911468 745.97611484 -207.34819686 708.54128361 C-207.33493852 704.39184341 -207.3396464 700.24241203 -207.34190369 696.09295654 C-207.3434581 688.94527758 -207.33424417 681.79768233 -207.31719017 674.65002441 C-207.29255097 664.31640135 -207.2849698 653.98281774 -207.2812262 643.64916849 C-207.2747002 626.8735114 -207.25484508 610.09789869 -207.22631836 593.32226562 C-207.19867704 577.05013243 -207.17749313 560.77801139 -207.16479492 544.50585938 C-207.16400675 543.49868803 -207.16321858 542.49151669 -207.16240653 541.453825 C-207.15849072 536.39990115 -207.15469976 531.34597721 -207.15097082 526.29205322 C-207.11999519 484.52800466 -207.06726617 442.7640049 -207 401 C-205.73746147 400.5888092 -205.73746147 400.5888092 -204.44941711 400.16931152 C-201.26017808 399.1274611 -198.07279113 398.0802641 -194.88642883 397.02966309 C-193.51961804 396.58015598 -192.15214602 396.1326534 -190.78395081 395.68737793 C-159.11651215 385.37464805 -130.91323765 369.05651974 -106 347 C-104.64261719 345.80890625 -104.64261719 345.80890625 -103.2578125 344.59375 C-95.25869584 337.49423004 -87.97377561 330.19404095 -81.28125 321.83984375 C-79.80407367 320.00096157 -78.3052046 318.17921177 -76.78125 316.37890625 C-59.12406233 295.45762578 -42.86582082 268.85555276 -34 243 C-33.36441738 241.39174438 -32.71880598 239.78741057 -32.0625 238.1875 C-31.37471493 236.4584467 -30.68724188 234.72926927 -30 233 C-29.57074219 231.94683594 -29.14148437 230.89367187 -28.69921875 229.80859375 C-13.90002171 192.19230585 -6.31696241 150.29123378 -2.875 110.125 C-2.76188477 108.83879761 -2.76188477 108.83879761 -2.64648438 107.52661133 C-0.79566747 84.42266377 -0.73878493 61.21098569 -0.46777344 38.04846191 C-0.41663095 33.74321308 -0.36144004 29.43801607 -0.30664062 25.1328125 C-0.20057686 16.75525273 -0.09882581 8.37764827 0 0 Z " fill="#0F4C97" transform="translate(1168,784)"/>
<path d="M0 0 C149 0 149 0 153 1 C153.07045671 12.70337546 153.12328493 24.40669801 153.15543652 36.11024475 C153.17089121 41.54850923 153.19174442 46.98662549 153.22631836 52.42480469 C153.38140955 77.49748289 153.00521734 102.09030167 150 127 C149.81581229 128.70321004 149.63496591 130.40678759 149.45874023 132.11083984 C149.05585614 135.97528156 148.60492293 139.83174053 148.125 143.6875 C148.04418182 144.33869812 147.96336365 144.98989624 147.88009644 145.66082764 C146.51801068 156.47969885 144.43144804 166.94336241 141.64111328 177.47851562 C140.71067337 181.13791525 139.9229223 184.82519119 139.12280273 188.51489258 C136.99554611 198.2839288 134.34273184 207.5709734 131 217 C130.2078168 219.49983637 129.41615752 221.99983883 128.625 224.5 C126.00360574 232.30772199 122.68608034 239.65330447 119 247 C118.56236328 247.87785156 118.12472656 248.75570312 117.67382812 249.66015625 C95.24566709 294.39475153 61.8175298 333.02994347 13.125 349.6875 C11.75397817 350.13315562 10.381716 350.5750278 9.0078125 351.01171875 C6.14919353 351.70045707 6.14919353 351.70045707 5 353 C3.35 353 1.7 353 0 353 C0 236.51 0 120.02 0 0 Z " fill="#104C97" transform="translate(961,775)"/>
</svg>
